<svg xmlns="http://www.w3.org/2000/svg" viewBox="0 0 64 64">
  <defs>
    <radialGradient id="body" cx="50%" cy="45%" r="55%">
      <stop offset="0%" stop-color="#FFC4D2"/>
      <stop offset="100%" stop-color="#FFB4C6"/>
    </radialGradient>
  </defs>
  <!-- purple bow -->
  <path d="M30 9 Q32 4 34 9 L33 13 L31 13 Z" fill="#C9A0FF"/>
  <circle cx="32" cy="9" r="1.6" fill="#FFD86E"/>
  <!-- body -->
  <ellipse cx="32" cy="36" rx="22" ry="22" fill="url(#body)" stroke="#E88FA4" stroke-width="1.4"/>
  <!-- belly highlight -->
  <ellipse cx="32" cy="44" rx="14" ry="7" fill="#FFD6DF" opacity="0.55"/>
  <!-- star freckles -->
  <circle cx="20" cy="28" r="0.9" fill="#FFD86E"/>
  <circle cx="44" cy="28" r="0.9" fill="#FFD86E"/>
  <!-- eyes -->
  <ellipse cx="25" cy="33" rx="3.6" ry="4.4" fill="#1a1a22"/>
  <ellipse cx="39" cy="33" rx="3.6" ry="4.4" fill="#1a1a22"/>
  <!-- eye sparkles -->
  <circle cx="26.4" cy="31.5" r="1.2" fill="#fff"/>
  <circle cx="40.4" cy="31.5" r="1.2" fill="#fff"/>
  <circle cx="24.2" cy="34.2" r="0.6" fill="#fff" opacity="0.8"/>
  <circle cx="38.2" cy="34.2" r="0.6" fill="#fff" opacity="0.8"/>
  <!-- blush cheeks -->
  <ellipse cx="18" cy="40" rx="3.2" ry="2.2" fill="#FF9AA2" opacity="0.7"/>
  <ellipse cx="46" cy="40" rx="3.2" ry="2.2" fill="#FF9AA2" opacity="0.7"/>
  <!-- tiny smile -->
  <path d="M29 42 Q32 45 35 42" stroke="#B06878" stroke-width="1.4" fill="none" stroke-linecap="round"/>
</svg>
